<svg xmlns="http://www.w3.org/2000/svg" width="20" height="17"><path fill="#FFF" d="M20 2.172a8.2 8.2 0 0 1-2.357.646 4.1 4.1 0 0 0 1.804-2.27 8.2 8.2 0 0 1-2.605.996A4.1 4.1 0 0 0 13.847.248c-2.65 0-4.596 2.472-3.998 5.037A11.65 11.65 0 0 1 1.392 1a4.11 4.11 0 0 0 1.27 5.478 4.1 4.1 0 0 1-1.858-.513c-.045 1.9 1.318 3.679 3.291 4.075a4.1 4.1 0 0 1-1.853.07 4.11 4.11 0 0 0 3.833 2.849A8.25 8.25 0 0 1 0 14.658a11.6 11.6 0 0 0 6.29 1.843c7.618 0 11.922-6.434 11.663-12.205A8.4 8.4 0 0 0 20 2.172"/></svg>